HIERARCHY
ROOT Hips
{
	OFFSET 0.000000 0.000000 0.000000
	CHANNELS 6 Xposition Yposition Zposition Zrotation Yrotation Xrotation 
	JOINT LHipJoint
	{
		OFFSET 0.000000 0.000000 0.000000
		CHANNELS 3 Zrotation Yrotation Xrotation
		JOINT LeftUpLeg
		{
			OFFSET 1.363060 -1.794630 0.839290
			CHANNELS 3 Zrotation Yrotation Xrotation
			JOINT LeftLeg
			{
				OFFSET 2.448110 -6.726130 0.000000
				CHANNELS 3 Zrotation Yrotation Xrotation
				JOINT LeftFoot
				{
					OFFSET 2.562200 -7.039590 0.000000
					CHANNELS 3 Zrotation Yrotation Xrotation
					JOINT LeftToeBase
					{
						OFFSET 0.157640 -0.433110 2.322550
						CHANNELS 3 Zrotation Yrotation Xrotation
						End Site
						{
							OFFSET 0.000000 0.000000 0.000000
						}
					}
				}
			}
		}
	}
	JOINT RHipJoint
	{
		OFFSET 0.000000 0.000000 0.000000
		CHANNELS 3 Zrotation Yrotation Xrotation
		JOINT RightUpLeg
		{
			OFFSET -1.305520 -1.794630 0.839290
			CHANNELS 3 Zrotation Yrotation Xrotation
			JOINT RightLeg
			{
				OFFSET -2.542530 -6.985550 0.000000
				CHANNELS 3 Zrotation Yrotation Xrotation
				JOINT RightFoot
				{
					OFFSET -2.568260 -7.056230 0.000000
					CHANNELS 3 Zrotation Yrotation Xrotation
					JOINT RightToeBase
					{
						OFFSET -0.164730 -0.452590 2.363150
						CHANNELS 3 Zrotation Yrotation Xrotation
						End Site
						{
							OFFSET 0.000000 0.000000 0.000000
						}
					}
				}
			}
		}
	}
	JOINT LowerBack
	{
		OFFSET 0.000000 0.000000 0.000000
		CHANNELS 3 Zrotation Yrotation Xrotation
		JOINT Spine
		{
			OFFSET 0.028270 2.035590 -0.193380
			CHANNELS 3 Zrotation Yrotation Xrotation
			JOINT Spine1
			{
				OFFSET 0.056720 2.048850 -0.042750
				CHANNELS 3 Zrotation Yrotation Xrotation
				JOINT Neck
				{
					OFFSET 0.000000 0.000000 0.000000
					CHANNELS 3 Zrotation Yrotation Xrotation
					JOINT Neck1
					{
						OFFSET -0.054170 1.746240 0.172020
						CHANNELS 3 Zrotation Yrotation Xrotation
						JOINT Head
						{
							OFFSET 0.104070 1.761360 -0.123970
							CHANNELS 3 Zrotation Yrotation Xrotation
							End Site
							{
								OFFSET 0.000000 0.000000 0.000000
							}
						}
					}
				}
				JOINT LeftShoulder
				{
					OFFSET 0.000000 0.000000 0.000000
					CHANNELS 3 Zrotation Yrotation Xrotation
					JOINT LeftArm
					{
						OFFSET 3.362410 1.200890 -0.311210
						CHANNELS 3 Zrotation Yrotation Xrotation
						JOINT LeftForeArm
						{
							OFFSET 4.983000 -0.000000 -0.000000
							CHANNELS 3 Zrotation Yrotation Xrotation
							JOINT LeftHand
							{
								OFFSET 3.483560 -0.000000 -0.000000
								CHANNELS 3 Zrotation Yrotation Xrotation
								JOINT LeftFingerBase
								{
									OFFSET 0.000000 0.000000 0.000000
									CHANNELS 3 Zrotation Yrotation Xrotation
									JOINT LeftHandIndex1
									{
										OFFSET 0.715260 -0.000000 -0.000000
										CHANNELS 3 Zrotation Yrotation Xrotation
										End Site
										{
											OFFSET 0.000000 0.000000 0.000000
										}
									}
								}
								JOINT LThumb
								{
									OFFSET 0.000000 0.000000 0.000000
									CHANNELS 3 Zrotation Yrotation Xrotation
									End Site
									{
										OFFSET 0.000000 0.000000 0.000000
									}
								}
							}
						}
					}
				}
				JOINT RightShoulder
				{
					OFFSET 0.000000 0.000000 0.000000
					CHANNELS 3 Zrotation Yrotation Xrotation
					JOINT RightArm
					{
						OFFSET -3.136600 1.374050 -0.404650
						CHANNELS 3 Zrotation Yrotation Xrotation
						JOINT RightForeArm
						{
							OFFSET -5.241900 -0.000000 -0.000000
							CHANNELS 3 Zrotation Yrotation Xrotation
							JOINT RightHand
							{
								OFFSET -3.444170 -0.000000 -0.000000
								CHANNELS 3 Zrotation Yrotation Xrotation
								JOINT RightFingerBase
								{
									OFFSET 0.000000 0.000000 0.000000
									CHANNELS 3 Zrotation Yrotation Xrotation
									JOINT RightHandIndex1
									{
										OFFSET -0.622530 -0.000000 -0.000000
										CHANNELS 3 Zrotation Yrotation Xrotation
										End Site
										{
											OFFSET 0.000000 0.000000 0.000000
										}
									}
								}
								JOINT RThumb
								{
									OFFSET 0.000000 0.000000 0.000000
									CHANNELS 3 Zrotation Yrotation Xrotation
									End Site
									{
										OFFSET 0.000000 0.000000 0.000000
									}
								}
							}
						}
					}
				}
			}
		}
	}
}
MOTION
Frames: 11
Frame Time: 0.008333
4.659249 16.340991 -11.550946 177.251937 4.023978 -171.544664 3.324844 14.512857 1.030808 -24.354669 -1.928247 -5.198859 -7.460535 -6.191905 20.888962 -3.311491 -15.404874 -11.798836 0.833163 0.385077 1.346670 -0.277561 -21.233117 12.788646 15.987585 18.046299 -49.725544 6.260102 4.099783 10.345071 1.585705 9.532387 -4.226088 -7.680322 1.058300 14.179869 -2.492084 2.319512 -1.793527 3.869676 0.670228 -4.254990 -1.522219 -1.747722 17.349013 -0.587055 1.977709 -22.452934 1.003827 2.443688 19.866636 -5.082940 7.640545 17.531829 7.878117 -0.207994 2.858856 -75.538272 -53.937442 7.227956 -11.914195 -28.194854 24.037159 6.287421 -19.514188 1.574364 0.000002 -0.000001 0.000002 0.000000 -0.000000 -0.000000 -0.000000 0.000000 -0.000000 1.716338 -5.815890 3.164971 70.433760 9.595950 -29.785342 14.979069 14.639265 -3.790897 2.923049 -2.693023 -0.404358 -0.000005 0.000004 -0.000002 0.000000 0.000000 0.000000 0.000000 0.000000 0.000000 
4.702823 16.327027 -11.731381 177.204160 3.580753 -171.351050 3.265439 14.401643 0.798214 -23.991340 -1.729138 -4.598375 -7.484779 -6.219402 20.945576 -3.660120 -16.004900 -11.545120 0.971621 0.346537 1.655600 -0.096783 -21.083871 13.176367 14.468547 18.904333 -50.360281 7.322255 4.842482 10.019545 1.183390 10.158814 -5.164777 -8.710629 2.219215 15.480701 -2.525820 2.377744 -1.960640 3.837154 0.727924 -4.243108 -1.625178 -1.649296 17.442380 -0.557083 2.044053 -22.565968 0.982627 2.539486 20.072665 -4.368142 7.661258 16.677764 8.099617 -0.576294 2.768515 -74.897593 -54.760835 7.319399 -11.586075 -28.826003 24.488467 6.198930 -19.811015 1.617855 0.000002 -0.000001 0.000002 0.000000 0.000000 0.000000 0.000000 0.000000 0.000000 1.925714 -6.249184 3.049650 70.546812 8.816126 -30.026895 14.618268 14.300385 -5.391357 2.767535 -3.970761 -0.615814 -0.000005 0.000004 -0.000002 0.000000 0.000000 0.000000 -0.000000 -0.000000 0.000000 
4.750586 16.295646 -11.921742 177.171530 3.085846 -171.059335 3.687024 14.511680 0.618941 -24.183614 -1.714685 -3.930919 -7.166452 -5.684738 20.756361 -4.081947 -17.291804 -11.018632 1.055504 0.591440 1.610986 -0.235005 -21.450455 13.905769 14.838687 19.192764 -51.462774 8.260505 7.297140 10.697575 1.396897 10.882009 -5.865413 -3.698383 -2.688741 8.467710 -2.586612 2.508644 -2.401401 3.743098 0.674649 -4.152091 -1.653971 -1.708715 17.302509 -0.537971 2.089648 -22.333715 1.032875 2.570811 20.115656 -3.951606 7.630140 16.529598 8.562254 -0.882575 2.729410 -74.443436 -55.303544 7.415769 -11.299109 -29.466643 24.815527 5.854714 -19.911297 1.692035 0.000002 -0.000001 0.000002 0.000000 -0.000000 -0.000000 -0.000000 -0.000000 0.000000 1.804327 -6.499236 2.902122 70.883429 7.648673 -29.995280 14.262198 13.971987 -7.623172 2.491883 -5.903079 -0.923462 -0.000005 0.000004 -0.000002 -0.000000 0.000000 0.000000 0.000000 0.000000 -0.000000 
4.795315 16.268919 -12.112147 177.253049 2.849031 -170.991612 4.090422 14.787891 0.721959 -24.190802 -1.646442 -3.355925 -6.972078 -5.420064 20.662773 -4.379353 -18.281388 -10.592176 1.058119 0.384915 1.795941 -0.475971 -21.928171 14.155014 15.632583 19.588904 -51.442588 9.111545 9.625900 10.997577 1.000870 11.898375 -6.320498 -1.419820 -5.165336 5.756104 -2.483644 2.640123 -2.618697 3.640885 0.688282 -4.054838 -1.404218 -1.840997 17.244384 -0.829270 2.072052 -22.181113 1.001109 2.592536 20.166784 -4.287450 7.678037 17.489085 8.541599 -1.001133 2.720887 -73.890852 -55.938204 7.274667 -11.069931 -30.043096 25.173223 5.778971 -20.214482 1.734750 0.000002 -0.000001 0.000002 -0.000000 -0.000000 -0.000000 0.000000 -0.000000 -0.000000 1.394955 -6.591304 2.792080 71.137812 6.617474 -30.024383 13.893339 13.633920 -9.207057 1.854955 -7.326872 -1.125279 -0.000005 0.000004 -0.000002 -0.000000 -0.000000 0.000000 -0.000000 -0.000000 0.000000 
4.843168 16.248348 -12.305826 177.395535 2.617838 -171.053456 4.193244 14.984205 0.807460 -23.726990 -1.649704 -2.811042 -6.909963 -5.225127 20.832024 -4.727468 -18.998313 -10.274580 1.024180 0.207737 1.883202 -0.474850 -22.139553 14.397305 15.572517 20.184061 -51.355661 9.466929 10.087389 11.329306 2.122981 12.798023 -5.943521 -1.160421 -2.215517 3.548916 -2.470866 2.778232 -2.763165 3.666596 0.758061 -3.946016 -1.589859 -1.654427 17.333365 -0.594137 2.094319 -22.191149 1.052214 2.579963 20.279180 -4.322943 7.773590 17.135468 8.946833 -1.396447 2.620484 -73.332733 -56.395360 7.108275 -10.776602 -30.656354 25.476809 6.212207 -20.493667 1.675093 0.000002 -0.000001 0.000002 0.000000 -0.000000 -0.000000 -0.000000 0.000000 -0.000000 1.763548 -6.955795 2.681363 71.220341 5.782338 -30.044446 13.592331 13.496355 -10.790457 1.390725 -8.752928 -1.321382 -0.000005 0.000004 -0.000002 -0.000000 -0.000000 0.000000 -0.000000 0.000000 -0.000000 
4.895571 16.223574 -12.499820 177.456448 2.606166 -171.202035 4.170681 15.227257 0.888364 -23.211995 -1.409808 -2.337082 -6.896315 -5.245043 21.289361 -5.068827 -19.549006 -10.053092 0.312600 0.097977 0.542934 -0.418012 -22.407965 14.514273 15.799808 20.636404 -51.229711 9.199255 8.696638 11.937798 4.449923 15.014569 -4.290636 -2.872049 -2.772443 6.931002 -2.664452 2.787418 -2.838512 3.766242 0.828837 -3.838819 -1.794092 -1.519242 17.559541 -0.259276 2.097683 -22.344567 1.097599 2.533029 20.290112 -4.709592 7.916155 17.036734 9.353075 -1.400374 2.474571 -72.903579 -56.708960 7.181048 -10.346203 -31.356065 25.682022 6.539342 -20.440131 1.606108 0.000002 -0.000001 0.000002 0.000000 -0.000000 -0.000000 -0.000000 -0.000000 -0.000000 2.143276 -7.033667 2.561111 71.266304 5.131460 -30.034119 13.388601 13.496474 -12.268719 1.266403 -10.042073 -1.512080 -0.000005 0.000004 -0.000002 0.000000 0.000000 0.000000 0.000000 -0.000000 0.000000 
4.944625 16.195646 -12.696517 177.491882 2.694250 -171.315278 4.166005 15.541976 1.038407 -22.792878 -1.026429 -1.992206 -6.807153 -5.325547 21.766333 -5.447050 -20.194845 -9.766379 -0.444685 -0.475572 -0.496490 -0.451354 -22.753162 14.583719 16.345450 21.034939 -51.053952 8.818702 7.117655 12.526614 6.832547 17.578656 -2.125472 -3.886504 -5.414600 10.334215 -2.809206 2.725018 -2.998349 3.807562 1.054455 -3.703888 -0.839587 -1.768230 17.973890 -1.121197 1.991511 -22.666947 1.103882 2.597652 20.239221 -4.933128 7.867232 17.925055 8.508035 -1.098544 2.836830 -72.472027 -57.758279 6.903589 -10.149040 -31.989091 26.282823 6.446122 -20.874879 1.661229 0.000002 -0.000001 0.000002 -0.000000 0.000000 0.000000 0.000000 0.000000 0.000000 1.281357 -7.182027 2.420132 71.318236 4.673542 -30.054796 13.205738 13.468956 -13.057281 0.667763 -10.756246 -1.571834 -0.000005 0.000004 -0.000002 0.000000 -0.000000 0.000000 0.000000 -0.000000 -0.000000 
4.984805 16.159760 -12.900255 177.677993 2.690979 -171.341353 4.398028 15.955759 1.135937 -22.557576 -0.686399 -1.593629 -6.585230 -5.454382 22.237453 -5.682931 -20.930846 -9.536639 -0.541202 -0.970066 -0.266847 -0.708217 -23.189458 14.838568 17.470556 21.431184 -50.938904 8.425114 6.101833 13.340451 9.161687 19.680165 0.182165 -3.513819 -8.034938 10.908785 -2.641743 2.831743 -3.344600 3.730557 1.079907 -3.529447 -0.690900 -1.698868 18.153318 -1.255568 2.044392 -22.688985 1.247586 2.666808 20.169842 -4.839851 8.155027 17.636807 8.621375 -1.020441 3.173589 -72.147444 -58.478846 6.487595 -10.057814 -32.598747 26.718293 6.312797 -21.349143 1.729835 0.000002 -0.000001 0.000002 -0.000000 0.000000 -0.000000 -0.000000 0.000000 -0.000000 1.066523 -7.360375 2.288200 71.479299 3.879683 -30.159516 13.077394 13.393269 -13.409001 -0.377196 -11.121390 -1.538448 -0.000005 0.000004 -0.000002 0.000000 0.000000 0.000000 -0.000000 0.000000 0.000000 
5.031877 16.131381 -13.101727 177.891254 2.292596 -171.274396 4.531383 16.191921 0.812480 -22.228122 -0.245631 -1.032594 -6.182290 -5.754428 22.884402 -6.212305 -21.625789 -8.980140 -0.620780 -1.216262 -0.212360 -0.802062 -23.344871 15.435097 18.314032 21.668075 -51.406867 7.527786 5.333341 14.278981 11.741849 20.857112 3.091549 -6.286803 -8.678650 16.243339 -2.697214 2.886291 -3.599627 3.777666 0.905203 -3.482059 -1.206290 -1.549189 18.181135 -0.610099 2.155289 -22.651390 1.389051 2.662204 20.245209 -4.554518 8.535416 17.047387 9.575036 -1.122043 3.068544 -71.780613 -58.457159 6.325682 -9.732209 -33.217157 26.891221 6.297902 -21.488543 1.744718 0.000002 -0.000001 0.000002 0.000000 -0.000000 0.000000 0.000000 -0.000000 0.000000 1.657119 -7.500813 2.131028 71.669163 3.078232 -30.290972 13.053804 13.268141 -13.632794 -0.976389 -11.300260 -1.513059 -0.000005 0.000004 -0.000002 -0.000000 0.000000 0.000000 0.000000 0.000000 -0.000000 
5.082432 16.140240 -13.310856 178.133458 1.824299 -170.952859 4.231004 15.561439 1.227961 -21.329742 -3.990096 -0.326271 -5.881729 -2.312500 21.807701 -6.600407 -21.611591 -8.415765 -1.490053 -1.780351 -1.547107 -0.135576 -22.822907 15.720652 18.347005 21.234711 -52.097604 6.749713 5.882857 15.348220 15.433045 19.783810 6.321500 -11.645082 -7.323017 25.431623 -2.998089 2.886190 -4.193461 4.097206 0.762499 -3.363642 -1.060549 -1.782274 18.191825 -0.575548 2.154486 -22.666968 1.282307 2.685933 20.697874 -4.570532 8.633390 17.173326 9.327734 -1.341688 2.940593 -70.962139 -58.211521 6.074397 -9.202991 -33.765207 27.121322 6.399213 -21.529206 1.727639 0.000002 -0.000001 0.000002 0.000000 -0.000000 0.000000 0.000000 0.000000 0.000000 1.982062 -7.450773 2.027260 71.533234 2.440345 -30.225146 12.910951 13.265567 -14.457674 -1.804080 -12.137323 -1.543859 -0.000005 0.000004 -0.000002 -0.000000 -0.000000 -0.000000 0.000000 0.000000 0.000000 
5.125405 16.167568 -13.519895 178.579370 1.472556 -170.889926 3.553198 15.085020 1.838590 -19.743071 -4.152056 -1.012519 -5.409192 -1.362619 22.016315 -7.748529 -22.483598 -7.021499 -2.798443 -2.281182 -3.906831 0.800104 -22.332766 15.437097 18.022755 20.846459 -51.674106 6.304612 6.845741 16.111623 17.802168 17.952396 8.880442 -14.796992 -14.123151 32.986917 -3.032710 2.930964 -4.580064 4.513034 0.634771 -3.158430 -0.593027 -2.100288 18.132368 -0.954786 2.127438 -22.681550 1.040655 2.781005 21.350700 -4.751501 8.694088 17.274926 8.303774 -1.604574 2.959882 -69.897981 -58.059478 5.459594 -8.776558 -34.231854 27.470912 6.379041 -21.810416 1.755906 0.000002 -0.000001 0.000002 0.000000 0.000000 0.000000 0.000000 -0.000000 -0.000000 2.088554 -7.298200 2.035750 71.180446 1.893572 -30.075681 12.661494 13.345975 -16.126854 -2.128860 -13.609325 -1.700715 -0.000005 0.000004 -0.000002 0.000000 0.000000 0.000000 0.000000 0.000000 0.000000 
